<svg xmlns="http://www.w3.org/2000/svg" xmlns:xlink="http://www.w3.org/1999/xlink" width="500" zoomAndPan="magnify" viewBox="0 0 375 374.999991" height="500" preserveAspectRatio="xMidYMid meet" version="1.0"><defs><g/><clipPath id="0d55d200f0"><path d="M 58 0 L 325.3125 0 L 325.3125 276 L 58 276 Z M 58 0 " clip-rule="nonzero"/></clipPath></defs><g clip-path="url(#0d55d200f0)"><path fill="#cc9933" d="M 325.167969 97.355469 C 314.050781 50.625 265.835938 0.234375 195.53125 0.113281 C 127.46875 -0.00390625 68.699219 51.472656 59.585938 118.859375 C 50.261719 187.773438 92.410156 252.160156 159.445312 270.769531 C 223.015625 288.417969 287.792969 257.15625 314.300781 203.9375 C 295.273438 233.992188 269.089844 254.746094 234.71875 264.226562 C 200.152344 273.769531 166.789062 269.964844 135.375 252.609375 C 84.175781 224.332031 58.085938 166.714844 70.796875 109.894531 C 83.691406 52.257812 131.625 12.382812 186.574219 8.027344 C 249.828125 3.019531 301.996094 37.371094 325.167969 97.355469 Z M 325.167969 97.355469 " fill-opacity="1" fill-rule="nonzero"/></g><path fill="#cc9933" d="M 160.203125 155.710938 C 163.675781 153.183594 167.203125 152.328125 170.558594 151.078125 C 173.375 150.03125 175.84375 149.550781 175.070312 154.242188 C 177.976562 153.140625 178.84375 150.765625 180.351562 149.074219 C 181.875 147.359375 183.457031 145.5625 185.792969 146.296875 C 188.242188 147.0625 186.464844 149.527344 186.957031 151.152344 C 187.140625 151.761719 187.273438 152.386719 187.773438 154.386719 C 189.460938 149.992188 190.878906 146.8125 191.886719 143.503906 C 192.425781 141.75 193.109375 140.621094 194.878906 139.878906 C 200.570312 137.488281 205.183594 133.683594 208.65625 128.488281 C 210.785156 130.59375 211.207031 133.300781 211.941406 135.816406 C 213.238281 140.261719 212.59375 143.921875 208 146.4375 C 203.230469 149.050781 201.011719 153.636719 198.84375 158.5625 C 193.269531 171.242188 183.769531 180.570312 170.398438 184.203125 C 161.457031 186.632812 153.324219 189.898438 145.902344 195.261719 C 142.390625 197.800781 138.851562 200.339844 134.628906 201.652344 C 133.847656 201.890625 132.890625 202.742188 132.386719 202.503906 C 126.316406 199.699219 124.128906 204.105469 121.28125 207.976562 C 118.730469 211.445312 114.363281 213.199219 112.085938 217.121094 C 111.082031 218.851562 110.28125 220.078125 111.835938 221.976562 C 113.472656 223.976562 115.089844 224.019531 117.050781 222.789062 C 125.027344 217.78125 133.140625 212.984375 141.132812 208.011719 C 150.414062 202.242188 160.960938 198.402344 171.707031 197.128906 C 181.128906 196.019531 189.050781 192.5 196.839844 187.847656 C 200.125 185.890625 203.351562 183.824219 207.082031 181.515625 C 208.777344 190.21875 210.371094 198.414062 211.96875 206.613281 C 212.46875 209.167969 212.023438 211.726562 211.242188 214.074219 C 208.136719 223.378906 209.402344 232.597656 211.230469 241.886719 C 211.867188 245.125 214.242188 248.660156 210.457031 251.609375 C 213.128906 254.898438 209.402344 259.003906 211.597656 262.128906 C 214.917969 266.851562 219.582031 270.128906 224.890625 272.339844 C 226 272.804688 227.601562 272.949219 228.621094 271.683594 C 229.746094 270.289062 228.710938 269.09375 228.023438 268.03125 C 225.199219 263.667969 222.40625 259.355469 221.433594 254.070312 C 218.867188 240.128906 219.726562 226.570312 224.09375 212.980469 C 227.894531 201.164062 227.023438 188.679688 226.464844 176.496094 C 226.160156 169.832031 227.53125 164.46875 230.511719 158.515625 C 236.972656 145.621094 238.777344 131.816406 233.84375 117.742188 C 231.992188 112.464844 227.226562 110.375 222.773438 108.089844 C 214.5 103.84375 212.921875 100.050781 216.90625 91.71875 C 218.328125 88.75 217.480469 87.292969 215.242188 85.445312 C 211.167969 82.070312 206.152344 80.761719 201.394531 79.25 C 193.273438 76.664062 183.234375 86.820312 185.371094 95.152344 C 185.847656 96.988281 186.03125 98.71875 186.011719 100.558594 C 185.957031 106.007812 190.976562 109.296875 195.90625 107.089844 C 197.035156 106.585938 198.1875 105.253906 199.441406 106.78125 C 200.628906 108.226562 198.777344 108.695312 198.371094 109.625 C 193.421875 121.003906 185.1875 130.074219 177.519531 139.570312 C 174.699219 143.0625 171.734375 145.734375 167.304688 147.1875 C 163.761719 148.363281 158.875 149.304688 160.203125 155.710938 Z M 160.203125 155.710938 " fill-opacity="1" fill-rule="nonzero"/><path fill="#003366" d="M 181.949219 87.042969 C 180.234375 88.113281 177.984375 88.785156 177.214844 85.386719 C 176.5625 82.492188 176.761719 79.933594 180.921875 80.199219 C 183.164062 80.34375 183.742188 79.09375 184.144531 76.832031 C 185.449219 69.421875 183.3125 62.863281 180.171875 56.394531 C 179.714844 55.449219 179.3125 54.429688 178.269531 54.222656 C 173.214844 53.226562 168.125 53.34375 163.726562 56.175781 C 159.882812 58.652344 159.554688 62.804688 160.207031 67.003906 C 160.648438 69.847656 161.597656 72.476562 163.070312 74.992188 C 164.328125 77.148438 165.207031 79.386719 163.945312 82.113281 C 161.554688 87.289062 160.386719 86.960938 155.898438 83.609375 C 148.441406 78.039062 150.011719 69.039062 146.453125 62.058594 C 145.324219 59.847656 147.359375 56.914062 148.195312 54.40625 C 149.9375 49.167969 151.835938 43.984375 153.789062 38.824219 C 155.0625 35.472656 156.609375 32.5 160.890625 31.886719 C 163.511719 31.515625 164.253906 28.289062 166.359375 26.894531 C 163.84375 23.589844 166.492188 22.226562 168.65625 20.632812 C 168.738281 20.574219 168.285156 19.78125 168.066406 19.328125 C 167.511719 18.164062 166.8125 18.824219 166.042969 19.097656 C 158.023438 21.929688 151.71875 26.292969 148.21875 34.6875 C 145.726562 40.664062 142.242188 46.273438 139.351562 52.140625 C 137.632812 55.636719 137.035156 59.019531 137.585938 62.8125 C 139.3125 74.769531 140.847656 86.761719 147.128906 97.460938 C 147.457031 98.019531 147.640625 98.703125 147.742188 99.355469 C 150.21875 114.535156 157.410156 127.734375 164.863281 140.878906 C 167.097656 144.824219 169.597656 143.15625 171.152344 141.40625 C 177.273438 134.507812 183.25 127.449219 188.734375 120.039062 C 190.992188 116.992188 190.109375 112.253906 187.492188 110.167969 C 179.277344 103.636719 182.640625 95.253906 181.949219 87.042969 Z M 181.949219 87.042969 " fill-opacity="1" fill-rule="nonzero"/><path fill="#003366" d="M 225.945312 105.539062 C 229.296875 107.636719 232.929688 109.503906 235.28125 112.882812 C 236.730469 114.976562 237.792969 113.226562 239.0625 112.777344 C 252.011719 108.1875 260.5625 98.371094 268.691406 88.015625 C 271.710938 84.167969 274.878906 80.566406 280.234375 79.835938 C 282.886719 79.46875 284.234375 77.589844 284.015625 74.773438 C 283.484375 68.007812 283.265625 61.34375 289.019531 56.226562 C 290.070312 55.292969 290.417969 53.699219 289.59375 52.527344 C 288.511719 50.984375 287.140625 52.433594 285.980469 52.742188 C 280.601562 54.191406 276.828125 57.941406 274.53125 62.65625 C 267.1875 77.691406 253.914062 86.691406 241.0625 96.0625 C 236.3125 99.523438 229.519531 99.878906 225.945312 105.539062 Z M 225.945312 105.539062 " fill-opacity="1" fill-rule="nonzero"/><path fill="#003366" d="M 179.203125 34.074219 C 183.101562 34.515625 186.109375 35.050781 189.136719 35.128906 C 191.527344 35.199219 192.691406 36.15625 193.503906 38.355469 C 196.316406 45.972656 196.875 54.011719 198.179688 61.90625 C 198.542969 64.078125 197.28125 65.703125 196.058594 67.355469 C 194.292969 69.742188 192.683594 72.25 192.058594 75.777344 C 195.269531 74.96875 198.132812 74.230469 201.074219 75.460938 C 202.457031 76.042969 203.683594 75.449219 204.078125 73.75 C 205.515625 67.527344 208.125 61.722656 205.636719 54.789062 C 203.160156 47.878906 200.664062 40.957031 197.898438 34.171875 C 196.046875 29.625 191.457031 27.582031 186.902344 26.097656 C 185.472656 25.636719 183.707031 25.703125 182.578125 24.878906 C 177.53125 21.1875 177.757812 26.046875 176.378906 28.464844 C 175.710938 29.636719 176.367188 30 177.238281 30.109375 C 178.222656 30.238281 179.242188 30.074219 180.246094 30.085938 C 181.964844 30.097656 184.792969 28.605469 185.105469 30.742188 C 185.492188 33.3125 182.265625 31.75 180.855469 32.574219 C 180.589844 32.734375 180.378906 33.003906 179.203125 34.074219 Z M 179.203125 34.074219 " fill-opacity="1" fill-rule="nonzero"/><path fill="#003366" d="M 207.683594 135.515625 C 204.566406 138.285156 201.425781 140.777344 197.769531 142.542969 C 194.25 144.238281 194.324219 147.953125 193.035156 150.917969 C 192.132812 152.980469 193.28125 156.269531 189.625 156.746094 C 186.289062 157.183594 184.21875 155.554688 182.964844 152.207031 C 180.121094 154.253906 178.863281 157.921875 174.925781 157.921875 C 173.476562 157.921875 173.644531 159.664062 173.949219 160.804688 C 175.402344 166.296875 174.628906 172.121094 176.628906 178.261719 C 183.679688 172.859375 191.308594 167.9375 194.550781 159.792969 C 197.304688 152.890625 200.542969 146.855469 206.042969 141.964844 C 207.804688 140.386719 209.574219 138.65625 207.683594 135.515625 Z M 207.683594 135.515625 " fill-opacity="1" fill-rule="nonzero"/><path fill="#003366" d="M 178.5625 266.078125 C 184.296875 272.449219 191.582031 268.789062 191.800781 268.675781 C 191.210938 268.113281 191.003906 267.195312 191.066406 265.816406 C 191.308594 260.984375 190.574219 256.027344 194.164062 251.929688 C 195.605469 250.277344 194.914062 248.40625 194.078125 246.722656 C 189.863281 238.207031 193.003906 229.636719 194.054688 221.140625 C 194.3125 219.058594 195.335938 216.960938 195.039062 214.785156 C 194.105469 208.023438 192.648438 201.308594 194.65625 193.84375 C 190.054688 195.761719 186.414062 197.417969 182.675781 198.78125 C 180.628906 199.527344 181.128906 201.050781 180.980469 202.476562 C 179.753906 213.976562 182.476562 225.179688 183.492188 236.511719 C 184.222656 244.730469 183.597656 252.957031 182.757812 261.097656 C 182.589844 262.730469 182.023438 266.460938 179.261719 266.203125 C 179.042969 266.199219 178.808594 266.152344 178.5625 266.078125 Z M 178.5625 266.078125 " fill-opacity="1" fill-rule="nonzero"/><g fill="#000000" fill-opacity="1"><g transform="translate(60.787219, 335.325282)"><g><path d="M 15.292969 -39.535156 C 14.996094 -39.535156 0.59375 -39.535156 0.59375 -39.535156 C 0.59375 -39.535156 2.726562 -39.179688 2.726562 -34.496094 L 2.726562 -5.039062 C 2.726562 -0.296875 0.59375 0 0.59375 0 L 15.824219 0 C 26.730469 -0.472656 34.316406 -9.128906 34.316406 -19.738281 C 34.316406 -30.703125 26.730469 -39.535156 15.292969 -39.535156 Z M 13.632812 -1.957031 C 12.386719 -1.957031 11.144531 -2.191406 9.957031 -2.609375 C 9.839844 -3.261719 9.71875 -4.03125 9.71875 -4.980469 L 9.71875 -34.378906 C 9.71875 -35.679688 9.898438 -36.6875 10.136719 -37.398438 C 11.5 -37.695312 12.507812 -37.695312 13.632812 -37.695312 C 21.160156 -37.695312 27.265625 -30.050781 27.265625 -20.210938 C 27.265625 -10.3125 21.160156 -1.957031 13.632812 -1.957031 Z M 13.632812 -1.957031 "/></g></g></g><g fill="#000000" fill-opacity="1"><g transform="translate(95.695565, 335.325282)"><g><path d="M 29.636719 -5.039062 L 29.636719 -21.929688 C 29.636719 -26.433594 24.0625 -29.042969 17.1875 -29.042969 C 12.625 -29.042969 8 -27.738281 5.273438 -23.945312 L 10.90625 -22.226562 C 11.320312 -26.078125 14.285156 -27.738281 17.128906 -27.738281 C 20.09375 -27.738281 22.640625 -26.613281 22.640625 -21.871094 L 22.640625 -19.679688 C 21.160156 -20.210938 19.679688 -20.390625 18.195312 -20.390625 C 8.890625 -20.390625 0.59375 -17.1875 0.59375 -10.015625 C 0.59375 -3.617188 6.105469 0 17.484375 0 C 20.332031 0 22.167969 -0.59375 23.472656 -1.363281 C 24.242188 -0.355469 25.605469 0 27.5 0 L 31.769531 0 C 31.769531 0 29.636719 -0.296875 29.636719 -5.039062 Z M 18.433594 -1.898438 C 10.90625 -1.898438 7.644531 -4.386719 7.644531 -10.433594 C 7.644531 -16.535156 14.046875 -18.609375 18.492188 -18.609375 C 20.210938 -18.609375 21.574219 -18.316406 22.640625 -17.898438 L 22.640625 -4.917969 C 22.640625 -4.148438 22.699219 -3.496094 22.820312 -2.90625 C 21.691406 -2.3125 20.269531 -1.898438 18.433594 -1.898438 Z M 18.433594 -1.898438 "/></g></g></g><g fill="#000000" fill-opacity="1"><g transform="translate(128.055425, 335.325282)"><g><path d="M 20.390625 -5.039062 C 20.390625 -0.296875 18.195312 0 18.195312 0 L 29.636719 0 C 29.636719 0 27.382812 -0.296875 27.382812 -4.980469 L 27.382812 -18.316406 C 27.382812 -26.199219 24.894531 -29.042969 15.46875 -29.042969 C 14.046875 -29.042969 11.675781 -28.570312 9.71875 -27.027344 L 9.71875 -29.042969 L 0.59375 -26.375 C 0.59375 -26.375 2.726562 -26.019531 2.726562 -21.335938 L 2.726562 -5.039062 C 2.726562 -0.296875 0.59375 0 0.59375 0 L 11.972656 0 C 11.972656 0 9.71875 -0.296875 9.71875 -4.980469 L 9.71875 -18.316406 C 9.71875 -25.308594 11.4375 -27.324219 15.46875 -27.324219 C 20.566406 -27.324219 20.390625 -21.929688 20.390625 -20.09375 C 20.390625 -5.039062 20.390625 -5.039062 20.390625 -5.039062 Z M 20.390625 -5.039062 "/></g></g></g><g fill="#000000" fill-opacity="1"><g transform="translate(158.281654, 335.325282)"><g><path d="M 14.878906 -1.421875 C 9.246094 -1.421875 7.644531 -7.289062 7.644531 -14.878906 C 7.644531 -22.40625 9.78125 -28.863281 14.878906 -28.863281 C 20.035156 -28.863281 21.335938 -25.722656 22.640625 -21.515625 L 28.152344 -22.996094 C 25.425781 -27.027344 22.050781 -29.992188 14.878906 -29.992188 C 5.691406 -29.992188 0.59375 -22.878906 0.59375 -14.523438 C 0.59375 -6.164062 6.519531 0.355469 14.878906 0.355469 C 20.507812 0.355469 23.234375 -1.066406 26.140625 -3.734375 L 21.574219 -5.691406 C 19.972656 -2.90625 18.90625 -1.421875 14.878906 -1.421875 Z M 14.878906 -1.421875 "/></g></g></g><g fill="#000000" fill-opacity="1"><g transform="translate(187.026211, 335.325282)"><g><path d="M 29.8125 -20.863281 C 29.636719 -25.605469 25.960938 -29.933594 16.65625 -29.933594 C 7.113281 -29.933594 0.59375 -22.820312 0.59375 -14.460938 C 0.59375 -6.105469 5.097656 0.414062 16.535156 0.414062 C 22.167969 0.414062 25.722656 -1.183594 28.273438 -4.265625 L 24.242188 -5.628906 C 22.640625 -2.84375 20.566406 -1.363281 16.535156 -1.363281 C 9.898438 -1.363281 7.824219 -7.289062 7.707031 -12.210938 C 23.175781 -14.34375 29.992188 -16.773438 29.8125 -20.863281 Z M 7.644531 -14.285156 L 7.644531 -14.816406 C 7.644531 -22.34375 9.128906 -28.746094 16.65625 -28.746094 C 24.894531 -28.746094 31.710938 -17.542969 7.644531 -14.285156 Z M 7.644531 -14.285156 "/></g></g></g><g fill="#000000" fill-opacity="1"><g transform="translate(219.3268, 335.325282)"><g><path d="M 13.691406 -39.535156 C 12.980469 -39.535156 0.59375 -39.535156 0.59375 -39.535156 C 0.59375 -39.535156 2.785156 -39.179688 2.785156 -34.496094 L 2.785156 -5.039062 C 2.785156 -0.296875 0.59375 0 0.59375 0 L 11.972656 0 C 11.972656 0 9.71875 -0.296875 9.71875 -4.980469 L 9.71875 -14.640625 C 11.5 -14.402344 16.359375 -14.285156 17.722656 -14.285156 C 27.027344 -14.285156 34.378906 -18.195312 34.378906 -27.027344 C 34.378906 -35.917969 25.132812 -39.535156 13.691406 -39.535156 Z M 13.632812 -16.417969 C 12.566406 -16.417969 11.082031 -16.597656 9.71875 -16.890625 L 9.71875 -34.378906 C 9.71875 -35.207031 9.78125 -35.917969 9.898438 -36.511719 C 11.082031 -36.925781 12.386719 -37.164062 13.691406 -37.164062 C 21.21875 -37.164062 27.324219 -34.140625 27.324219 -26.613281 C 27.324219 -19.144531 21.160156 -16.417969 13.632812 -16.417969 Z M 13.632812 -16.417969 "/></g></g></g><g fill="#000000" fill-opacity="1"><g transform="translate(254.294399, 335.325282)"><g><path d="M 26.199219 -23.769531 C 26.199219 -23.769531 24.359375 -29.042969 15.410156 -29.042969 C 13.039062 -29.042969 10.726562 -28.152344 9.71875 -26.851562 L 9.71875 -29.042969 L 0.59375 -26.375 C 0.59375 -26.375 2.726562 -26.019531 2.726562 -21.335938 L 2.726562 -5.039062 C 2.726562 -0.296875 0.59375 0 0.59375 0 L 11.972656 0 C 11.972656 0 9.71875 -0.296875 9.71875 -4.980469 L 9.71875 -23.234375 C 9.71875 -24.597656 10.789062 -27.324219 14.816406 -27.324219 C 20.449219 -27.324219 19.796875 -20.09375 19.796875 -20.09375 Z M 26.199219 -23.769531 "/></g></g></g><g fill="#000000" fill-opacity="1"><g transform="translate(281.083137, 335.325282)"><g><path d="M 16.476562 -29.636719 C 6.222656 -29.636719 0.59375 -22.820312 0.59375 -14.460938 C 0.59375 -6.105469 5.925781 0.652344 16.476562 0.652344 C 27.085938 0.652344 32.539062 -6.105469 32.539062 -14.460938 C 32.539062 -22.820312 26.789062 -29.636719 16.476562 -29.636719 Z M 16.476562 -0.949219 C 9.007812 -0.949219 7.644531 -7.230469 7.644531 -14.816406 C 7.644531 -22.34375 9.898438 -28.507812 16.476562 -28.507812 C 23.054688 -28.507812 25.488281 -22.34375 25.488281 -14.816406 C 25.488281 -7.230469 24.003906 -0.949219 16.476562 -0.949219 Z M 16.476562 -0.949219 "/></g></g></g><g fill="#000000" fill-opacity="1"><g transform="translate(88.215727, 370.136927)"><g><path d="M 4.859375 -12.359375 L 0.078125 -12.359375 L 0.078125 -13.59375 L 11.078125 -13.59375 L 11.078125 -12.359375 L 6.296875 -12.359375 L 6.296875 0 L 4.859375 0 Z M 4.859375 -12.359375 "/></g></g></g><g fill="#000000" fill-opacity="1"><g transform="translate(103.240132, 370.136927)"><g><path d="M 10.734375 -3.625 L 3.171875 -3.625 L 1.53125 0 L 0.03125 0 L 6.25 -13.59375 L 7.671875 -13.59375 L 13.890625 0 L 12.375 0 Z M 10.21875 -4.796875 L 6.953125 -12.09375 L 3.6875 -4.796875 Z M 10.21875 -4.796875 "/></g></g></g><g fill="#000000" fill-opacity="1"><g transform="translate(121.039682, 370.136927)"><g><path d="M 6.421875 -6.390625 L 3.65625 -3.578125 L 3.65625 0 L 2.21875 0 L 2.21875 -13.59375 L 3.65625 -13.59375 L 3.65625 -5.375 L 11.640625 -13.59375 L 13.28125 -13.59375 L 7.40625 -7.4375 L 13.6875 0 L 11.984375 0 Z M 6.421875 -6.390625 "/></g></g></g><g fill="#000000" fill-opacity="1"><g transform="translate(138.722786, 370.136927)"><g><path d="M 11.828125 -1.25 L 11.828125 0 L 2.21875 0 L 2.21875 -13.59375 L 11.53125 -13.59375 L 11.53125 -12.359375 L 3.65625 -12.359375 L 3.65625 -7.515625 L 10.6875 -7.515625 L 10.6875 -6.296875 L 3.65625 -6.296875 L 3.65625 -1.25 Z M 11.828125 -1.25 "/></g></g></g><g fill="#000000" fill-opacity="1"><g transform="translate(155.590818, 370.136927)"><g/></g></g><g fill="#000000" fill-opacity="1"><g transform="translate(164.560404, 370.136927)"><g><path d="M 8.125 0.109375 C 6.769531 0.109375 5.550781 -0.1875 4.46875 -0.78125 C 3.394531 -1.375 2.550781 -2.195312 1.9375 -3.25 C 1.320312 -4.3125 1.015625 -5.492188 1.015625 -6.796875 C 1.015625 -8.109375 1.320312 -9.289062 1.9375 -10.34375 C 2.550781 -11.394531 3.398438 -12.21875 4.484375 -12.8125 C 5.578125 -13.414062 6.796875 -13.71875 8.140625 -13.71875 C 9.148438 -13.71875 10.082031 -13.546875 10.9375 -13.203125 C 11.789062 -12.867188 12.515625 -12.378906 13.109375 -11.734375 L 12.203125 -10.8125 C 11.140625 -11.894531 9.796875 -12.4375 8.171875 -12.4375 C 7.097656 -12.4375 6.117188 -12.1875 5.234375 -11.6875 C 4.359375 -11.195312 3.671875 -10.523438 3.171875 -9.671875 C 2.671875 -8.816406 2.421875 -7.859375 2.421875 -6.796875 C 2.421875 -5.734375 2.671875 -4.773438 3.171875 -3.921875 C 3.671875 -3.066406 4.359375 -2.394531 5.234375 -1.90625 C 6.117188 -1.414062 7.097656 -1.171875 8.171875 -1.171875 C 9.804688 -1.171875 11.148438 -1.710938 12.203125 -2.796875 L 13.109375 -1.890625 C 12.515625 -1.234375 11.785156 -0.734375 10.921875 -0.390625 C 10.066406 -0.0546875 9.132812 0.109375 8.125 0.109375 Z M 8.125 0.109375 "/></g></g></g><g fill="#000000" fill-opacity="1"><g transform="translate(182.39876, 370.136927)"><g><path d="M 8.15625 0.109375 C 6.8125 0.109375 5.59375 -0.1875 4.5 -0.78125 C 3.40625 -1.382812 2.550781 -2.210938 1.9375 -3.265625 C 1.320312 -4.316406 1.015625 -5.492188 1.015625 -6.796875 C 1.015625 -8.109375 1.320312 -9.285156 1.9375 -10.328125 C 2.550781 -11.378906 3.40625 -12.207031 4.5 -12.8125 C 5.59375 -13.414062 6.8125 -13.71875 8.15625 -13.71875 C 9.5 -13.71875 10.710938 -13.414062 11.796875 -12.8125 C 12.878906 -12.21875 13.726562 -11.394531 14.34375 -10.34375 C 14.96875 -9.289062 15.28125 -8.109375 15.28125 -6.796875 C 15.28125 -5.492188 14.96875 -4.3125 14.34375 -3.25 C 13.726562 -2.195312 12.878906 -1.375 11.796875 -0.78125 C 10.710938 -0.1875 9.5 0.109375 8.15625 0.109375 Z M 8.15625 -1.171875 C 9.226562 -1.171875 10.195312 -1.410156 11.0625 -1.890625 C 11.9375 -2.378906 12.617188 -3.050781 13.109375 -3.90625 C 13.597656 -4.769531 13.84375 -5.734375 13.84375 -6.796875 C 13.84375 -7.859375 13.597656 -8.816406 13.109375 -9.671875 C 12.617188 -10.535156 11.9375 -11.210938 11.0625 -11.703125 C 10.195312 -12.191406 9.226562 -12.4375 8.15625 -12.4375 C 7.082031 -12.4375 6.109375 -12.191406 5.234375 -11.703125 C 4.359375 -11.210938 3.671875 -10.535156 3.171875 -9.671875 C 2.671875 -8.816406 2.421875 -7.859375 2.421875 -6.796875 C 2.421875 -5.734375 2.671875 -4.769531 3.171875 -3.90625 C 3.671875 -3.050781 4.359375 -2.378906 5.234375 -1.890625 C 6.109375 -1.410156 7.082031 -1.171875 8.15625 -1.171875 Z M 8.15625 -1.171875 "/></g></g></g><g fill="#000000" fill-opacity="1"><g transform="translate(202.565903, 370.136927)"><g><path d="M 13.578125 -13.59375 L 13.578125 0 L 12.390625 0 L 3.65625 -11.03125 L 3.65625 0 L 2.21875 0 L 2.21875 -13.59375 L 3.40625 -13.59375 L 12.15625 -2.5625 L 12.15625 -13.59375 Z M 13.578125 -13.59375 "/></g></g></g><g fill="#000000" fill-opacity="1"><g transform="translate(222.228481, 370.136927)"><g><path d="M 4.859375 -12.359375 L 0.078125 -12.359375 L 0.078125 -13.59375 L 11.078125 -13.59375 L 11.078125 -12.359375 L 6.296875 -12.359375 L 6.296875 0 L 4.859375 0 Z M 4.859375 -12.359375 "/></g></g></g><g fill="#000000" fill-opacity="1"><g transform="translate(237.25288, 370.136927)"><g><path d="M 11.5 0 L 8.390625 -4.375 C 8.035156 -4.332031 7.671875 -4.3125 7.296875 -4.3125 L 3.65625 -4.3125 L 3.65625 0 L 2.21875 0 L 2.21875 -13.59375 L 7.296875 -13.59375 C 9.035156 -13.59375 10.394531 -13.175781 11.375 -12.34375 C 12.363281 -11.519531 12.859375 -10.382812 12.859375 -8.9375 C 12.859375 -7.875 12.585938 -6.972656 12.046875 -6.234375 C 11.515625 -5.503906 10.75 -4.976562 9.75 -4.65625 L 13.078125 0 Z M 7.265625 -5.53125 C 8.609375 -5.53125 9.632812 -5.828125 10.34375 -6.421875 C 11.0625 -7.023438 11.421875 -7.863281 11.421875 -8.9375 C 11.421875 -10.03125 11.0625 -10.875 10.34375 -11.46875 C 9.632812 -12.0625 8.609375 -12.359375 7.265625 -12.359375 L 3.65625 -12.359375 L 3.65625 -5.53125 Z M 7.265625 -5.53125 "/></g></g></g><g fill="#000000" fill-opacity="1"><g transform="translate(255.16886, 370.136927)"><g><path d="M 8.15625 0.109375 C 6.8125 0.109375 5.59375 -0.1875 4.5 -0.78125 C 3.40625 -1.382812 2.550781 -2.210938 1.9375 -3.265625 C 1.320312 -4.316406 1.015625 -5.492188 1.015625 -6.796875 C 1.015625 -8.109375 1.320312 -9.285156 1.9375 -10.328125 C 2.550781 -11.378906 3.40625 -12.207031 4.5 -12.8125 C 5.59375 -13.414062 6.8125 -13.71875 8.15625 -13.71875 C 9.5 -13.71875 10.710938 -13.414062 11.796875 -12.8125 C 12.878906 -12.21875 13.726562 -11.394531 14.34375 -10.34375 C 14.96875 -9.289062 15.28125 -8.109375 15.28125 -6.796875 C 15.28125 -5.492188 14.96875 -4.3125 14.34375 -3.25 C 13.726562 -2.195312 12.878906 -1.375 11.796875 -0.78125 C 10.710938 -0.1875 9.5 0.109375 8.15625 0.109375 Z M 8.15625 -1.171875 C 9.226562 -1.171875 10.195312 -1.410156 11.0625 -1.890625 C 11.9375 -2.378906 12.617188 -3.050781 13.109375 -3.90625 C 13.597656 -4.769531 13.84375 -5.734375 13.84375 -6.796875 C 13.84375 -7.859375 13.597656 -8.816406 13.109375 -9.671875 C 12.617188 -10.535156 11.9375 -11.210938 11.0625 -11.703125 C 10.195312 -12.191406 9.226562 -12.4375 8.15625 -12.4375 C 7.082031 -12.4375 6.109375 -12.191406 5.234375 -11.703125 C 4.359375 -11.210938 3.671875 -10.535156 3.171875 -9.671875 C 2.671875 -8.816406 2.421875 -7.859375 2.421875 -6.796875 C 2.421875 -5.734375 2.671875 -4.769531 3.171875 -3.90625 C 3.671875 -3.050781 4.359375 -2.378906 5.234375 -1.890625 C 6.109375 -1.410156 7.082031 -1.171875 8.15625 -1.171875 Z M 8.15625 -1.171875 "/></g></g></g><g fill="#000000" fill-opacity="1"><g transform="translate(275.336003, 370.136927)"><g><path d="M 2.21875 -13.59375 L 3.65625 -13.59375 L 3.65625 -1.25 L 11.265625 -1.25 L 11.265625 0 L 2.21875 0 Z M 2.21875 -13.59375 "/></g></g></g></svg>